<svg width="75" height="75" viewBox="0 0 75 75" fill="none" xmlns="http://www.w3.org/2000/svg">
<g filter="url(#filter0_d_16675_114473)">
<path d="M22.8312 21.0157L15.1041 3.83941C15.0426 3.70275 15.0119 3.63442 14.9822 3.57583C14.3783 2.38101 13.0348 1.75508 11.7315 2.06134C11.6676 2.07636 11.5955 2.09678 11.4513 2.13763C10.9386 2.28287 10.6823 2.3555 10.4513 2.43072C5.78838 3.94886 2.43493 8.04122 1.86284 12.9115C1.83449 13.1528 1.81366 13.4184 1.77201 13.9497L1.63824 15.6556C1.59405 16.2191 1.57196 16.5009 1.59601 16.7521C1.68934 17.7273 2.26878 18.5894 3.13649 19.044C3.36006 19.1612 3.62929 19.2471 4.16774 19.419L23.8891 25.714C24.9657 26.0576 25.5516 27.2171 25.1895 28.2877C24.8528 29.2832 23.8096 29.8547 22.7894 29.6027L7.16367 25.7422C5.20251 25.2577 4.22193 25.0154 3.44994 25.2556C2.7733 25.4662 2.1972 25.9173 1.83049 26.5237C1.41211 27.2155 1.41211 28.2256 1.41211 30.2457V35.4395C1.41211 37.4193 1.41211 38.4092 1.82055 39.0948C2.17866 39.696 2.74213 40.1474 3.40698 40.3657C4.16524 40.6147 5.13125 40.3987 7.06326 39.9667L7.06331 39.9667L34.7296 33.7804C35.7311 33.5565 36.7256 34.1828 36.9564 35.1828C37.1808 36.1554 36.6006 37.1326 35.6391 37.401L4.80351 46.0106C3.58839 46.3499 2.98083 46.5196 2.52962 46.8711C2.13138 47.1813 1.82105 47.5902 1.62933 48.0572C1.41211 48.5863 1.41211 49.2171 1.41211 50.4787V58.3453C1.41211 58.9924 1.41211 59.3159 1.42577 59.6304C1.55378 62.5766 2.57727 65.4137 4.35968 67.7631C4.5499 68.0138 4.75641 68.2628 5.16938 68.7607L5.1696 68.761C5.44145 69.0887 5.57737 69.2526 5.69762 69.3677C6.87812 70.4979 8.759 70.4296 9.85439 69.2167C9.96596 69.0931 10.0896 68.9198 10.337 68.5732L24.9032 48.1623C25.4936 47.335 26.6294 47.1168 27.4844 47.6664C28.3397 48.2162 28.6126 49.3408 28.1043 50.2215L18.7364 66.4545C17.4187 68.7378 16.7599 69.8794 16.8585 70.8162C16.9445 71.6333 17.3731 72.3756 18.0378 72.8585C18.7999 73.4121 20.118 73.4121 22.7543 73.4121H30.9591C32.6389 73.4121 33.4787 73.4121 34.1107 73.0811C34.6662 72.7901 35.1125 72.3268 35.3824 71.7607C35.6894 71.1167 35.6579 70.2775 35.5948 68.5989L34.7613 46.4286C34.7196 45.3175 35.609 44.3939 36.721 44.3939C37.7315 44.3939 38.5766 45.1619 38.6731 46.1678L40.8826 69.2159C41.0246 70.6978 41.0957 71.4387 41.43 71.9988C41.7244 72.4921 42.1587 72.8868 42.6778 73.1328C43.2673 73.4121 44.0116 73.4121 45.5003 73.4121H51.4578C54.0975 73.4121 55.4173 73.4121 56.1797 72.8578C56.8447 72.3743 57.2731 71.6313 57.3584 70.8136C57.4562 69.8761 56.795 68.7338 55.4726 66.4492L44.548 47.5761C44.0687 46.7481 44.3409 45.6887 45.1599 45.1942C45.9551 44.7141 46.9867 44.9367 47.5131 45.702L63.5554 69.022C64.1406 69.8726 64.4331 70.2979 64.7487 70.5574C65.7099 71.3478 67.0683 71.4366 68.1242 70.7782C68.471 70.562 68.8164 70.1785 69.5074 69.4115C70.4181 68.4004 70.8735 67.8948 71.2568 67.3574C72.3983 65.7569 73.1142 63.8925 73.3372 61.9393C73.4121 61.2835 73.4121 60.6031 73.4121 59.2423V49.6546C73.4121 48.128 73.4121 47.3647 73.1224 46.7663C72.8674 46.2395 72.4589 45.8022 71.9506 45.5119C71.3733 45.1822 70.6118 45.1303 69.0887 45.0264L53.4365 43.9592C52.522 43.8969 51.8121 43.1369 51.8121 42.2204C51.8121 41.297 52.5322 40.5339 53.4539 40.4804L69.0422 39.575H69.0422C70.5802 39.4857 71.3492 39.441 71.9328 39.1131C72.4466 38.8245 72.8603 38.3861 73.1186 37.8565C73.4121 37.2548 73.4121 36.4845 73.4121 34.9439V24.9267C73.4121 21.5355 73.4121 19.8399 72.7339 19.0316C72.1451 18.3297 71.2592 17.9475 70.3447 18.0006C69.2913 18.0618 68.0577 19.2251 65.5905 21.5517L46.9142 39.164C46.2115 39.8266 45.1075 39.8042 44.4322 39.1136C43.77 38.4364 43.7577 37.358 44.4044 36.6658L69.4036 9.90808C70.0563 9.20944 70.1528 8.15735 69.638 7.35163C67.5865 4.14054 64.0391 2.19734 60.2286 2.19734H58.4474C57.374 2.19734 56.4023 2.83248 55.9714 3.81567L44.6494 29.6542C44.2453 30.5764 43.1459 30.965 42.2521 30.5015C41.503 30.1131 41.14 29.2436 41.3905 28.4379L47.9232 7.42842C48.5564 5.39192 48.8731 4.37367 48.6579 3.56548C48.4694 2.85778 48.0202 2.24761 47.4004 1.85755C46.6925 1.41211 45.6262 1.41211 43.4935 1.41211H40.4147C38.7909 1.41211 37.979 1.41211 37.3588 1.72812C36.8133 2.00609 36.3697 2.44963 36.0918 2.99517C35.7757 3.61537 35.7757 4.42726 35.7757 6.05104V24.9212C35.7757 26.0057 34.8966 26.8848 33.8121 26.8848C32.7276 26.8848 31.8485 26.0057 31.8485 24.9212V6.05104C31.8485 4.42726 31.8485 3.61537 31.5325 2.99517C31.2545 2.44963 30.811 2.00609 30.2654 1.72812C29.6452 1.41211 28.8333 1.41211 27.2095 1.41211H26.8246C24.6532 1.41211 23.5675 1.41211 22.8546 1.86662C22.2304 2.26448 21.7821 2.88597 21.6014 3.60373C21.3951 4.42368 21.7375 5.45392 22.4225 7.5144L26.4425 19.6074C26.7782 20.6171 26.2381 21.7089 25.2318 22.0548C24.2834 22.3808 23.2427 21.9304 22.8312 21.0157Z" fill="white"/>
</g>
<defs>
<filter id="filter0_d_16675_114473" x="0.000344634" y="0.000344634" width="74.8235" height="74.8235" filterUnits="userSpaceOnUse" color-interpolation-filters="sRGB">
<feFlood flood-opacity="0" result="BackgroundImageFix"/>
<feColorMatrix in="SourceAlpha" type="matrix" values="0 0 0 0 0 0 0 0 0 0 0 0 0 0 0 0 0 0 127 0" result="hardAlpha"/>
<feOffset/>
<feGaussianBlur stdDeviation="0.705882"/>
<feComposite in2="hardAlpha" operator="out"/>
<feColorMatrix type="matrix" values="0 0 0 0 0 0 0 0 0 0 0 0 0 0 0 0 0 0 0.25 0"/>
<feBlend mode="normal" in2="BackgroundImageFix" result="effect1_dropShadow_16675_114473"/>
<feBlend mode="normal" in="SourceGraphic" in2="effect1_dropShadow_16675_114473" result="shape"/>
</filter>
</defs>
</svg>
