<svg width="24" height="24" viewBox="0 0 24 24" fill="none" xmlns="http://www.w3.org/2000/svg">
<path d="M21.3213 19.1079L19.624 20.8052L16.3574 17.5386L12.25 21.6021L4.65527 14.0913C2.49669 11.837 2.46502 8.53072 4.46973 6.44873C4.60225 6.311 4.74201 6.1846 4.88477 6.06592L3.17969 4.36084L4.87695 2.66357L21.3213 19.1079ZM6.4082 7.95752L6.2207 8.13428C5.18955 9.20526 5.08749 11.0141 6.39453 12.394L12.25 18.1831L14.6387 15.8198L6.61621 7.79736C6.54513 7.84636 6.47564 7.89986 6.4082 7.95752ZM13.0928 6.46826C15.0109 4.45374 18.1006 4.44451 20.0303 6.44873C22.035 8.53186 22.0033 11.837 19.8447 14.0913L19.6143 14.3188L17.8955 12.6001L18.1045 12.394C19.3297 11.1009 19.3189 9.43173 18.4629 8.34424L18.2793 8.13428C17.3094 7.12706 15.8168 7.13125 14.8525 8.14404L14.8076 8.19092L14.7607 8.23584L14.1279 8.83252L12.4092 7.11377L13.0928 6.46826Z" fill="white"/>
</svg>
