<svg width="25" height="24" viewBox="0 0 25 24" fill="none" xmlns="http://www.w3.org/2000/svg">
<path d="M13.4111 5.23047C15.4848 3.07957 18.825 3.06993 20.9111 5.20996C23.0786 7.43418 23.0446 10.9631 20.7109 13.3701L12.5 21.3887L4.28906 13.3701C1.9554 10.9631 1.92145 7.43296 4.08887 5.20996C6.17373 3.06993 9.51519 3.07957 11.5889 5.23047L12.5 6.11133L13.4111 5.23047ZM19.1924 6.88574C18.0519 5.7158 16.2722 5.7206 15.1387 6.89648L15.1094 6.92773L15.0791 6.95703L14.168 7.83691L12.5 9.44824L10.832 7.83691L9.9209 6.95703L9.89062 6.92773L9.86133 6.89648C8.72759 5.72042 6.94742 5.71612 5.80859 6.88477L5.80762 6.88574C4.6184 8.10545 4.51635 10.1376 5.99219 11.6787L12.5 18.0342L19.0068 11.6787C20.4829 10.1378 20.3826 8.10616 19.1924 6.88477V6.88574Z" fill="white"/>
</svg>
